<svg xmlns="http://www.w3.org/2000/svg" xmlns:xlink="http://www.w3.org/1999/xlink" width="66" height="66" viewBox="0 0 66 66"><defs><style>.a{fill:#4cd964;}.b{fill:#fff;}.c{filter:url(#a);}</style><filter id="a" x="0" y="0" width="66" height="66" filterUnits="userSpaceOnUse"><feOffset dy="3" input="SourceAlpha"/><feGaussianBlur stdDeviation="3" result="b"/><feFlood flood-color="#4cd964" flood-opacity="0.486"/><feComposite operator="in" in2="b"/><feComposite in="SourceGraphic"/></filter></defs><g transform="translate(-154 -517.004)"><g class="c" transform="matrix(1, 0, 0, 1, 154, 517)"><circle class="a" cx="24" cy="24" r="24" transform="translate(9 6)"/></g><g transform="translate(179.027 540.004)"><path class="b" d="M6.225,4.811A1,1,0,0,0,4.811,6.225L10.586,12,4.811,17.775a1,1,0,0,0,1.414,1.414L12,13.414l5.775,5.775a1,1,0,0,0,1.414-1.414L13.414,12l5.775-5.775a1,1,0,0,0-1.414-1.414L12,10.586Z" transform="translate(-4.518 -4.518)"/></g></g></svg>