<svg xmlns="http://www.w3.org/2000/svg" width="28.198" height="18.798" viewBox="0 0 28.198 18.798"><defs><style>.a{fill:#636363;}</style></defs><g transform="translate(0 0)"><path class="a" d="M25.26,85.333H2.937A2.941,2.941,0,0,0,0,88.27v12.924a2.941,2.941,0,0,0,2.937,2.937H25.26a2.941,2.941,0,0,0,2.937-2.937V88.27A2.941,2.941,0,0,0,25.26,85.333Zm1.762,15.861a1.764,1.764,0,0,1-1.762,1.762H2.937a1.764,1.764,0,0,1-1.762-1.762V88.27a1.764,1.764,0,0,1,1.762-1.762H25.26a1.764,1.764,0,0,1,1.762,1.762v12.924Z" transform="translate(0 -85.333)"/></g><g transform="translate(0 3.525)"><path class="a" d="M27.61,149.333H.587A.588.588,0,0,0,0,149.92v3.525a.588.588,0,0,0,.587.587H27.61a.588.588,0,0,0,.587-.587V149.92A.588.588,0,0,0,27.61,149.333Zm-.587,3.525H1.175v-2.35H27.023v2.35Z" transform="translate(0 -149.333)"/></g><g transform="translate(3.525 11.749)"><path class="a" d="M71.637,298.667H64.587a.587.587,0,1,0,0,1.175h7.049a.587.587,0,1,0,0-1.175Z" transform="translate(-64 -298.667)"/></g><g transform="translate(3.525 14.099)"><path class="a" d="M71.637,341.333H64.587a.587.587,0,0,0,0,1.175h7.049a.587.587,0,0,0,0-1.175Z" transform="translate(-64 -341.333)"/></g><g transform="translate(19.973 10.574)"><path class="a" d="M365.6,277.333h-1.175a1.764,1.764,0,0,0-1.762,1.762v1.175a1.764,1.764,0,0,0,1.762,1.762H365.6a1.764,1.764,0,0,0,1.762-1.762V279.1A1.765,1.765,0,0,0,365.6,277.333Zm.587,2.937a.588.588,0,0,1-.587.587h-1.175a.588.588,0,0,1-.587-.587V279.1a.588.588,0,0,1,.587-.587H365.6a.588.588,0,0,1,.587.587Z" transform="translate(-362.667 -277.333)"/></g></svg>