<svg xmlns="http://www.w3.org/2000/svg" width="34" height="34" viewBox="0 0 34 34"><defs><style>.a{fill:#757575;}</style></defs><g transform="translate(11.334)"><path class="a" d="M181.858,16.367a1.418,1.418,0,0,0-1.268-.783h-2.833V1.417a1.417,1.417,0,0,0-2.833,0V15.583H172.09a1.416,1.416,0,0,0-1.133,2.267l4.25,5.667c.018.024.047.033.067.055a1.383,1.383,0,0,0,.327.273,1.457,1.457,0,0,0,.146.1,1.329,1.329,0,0,0,1.189,0,1.438,1.438,0,0,0,.145-.1,1.383,1.383,0,0,0,.327-.273c.018-.023.048-.031.067-.055l4.25-5.667A1.415,1.415,0,0,0,181.858,16.367Z" transform="translate(-170.674)"/></g><g transform="translate(0 21.25)"><path class="a" d="M32.583,320a1.416,1.416,0,0,0-1.417,1.417v4.25a4.255,4.255,0,0,1-4.25,4.25H7.083a4.255,4.255,0,0,1-4.25-4.25v-4.25a1.417,1.417,0,0,0-2.833,0v4.25a7.091,7.091,0,0,0,7.083,7.083H26.917A7.091,7.091,0,0,0,34,325.667v-4.25A1.416,1.416,0,0,0,32.583,320Z" transform="translate(0 -320)"/></g></svg>