<svg xmlns="http://www.w3.org/2000/svg" width="16.654" height="11.719" viewBox="0 0 16.654 11.719"><defs><style>.a{fill:#636363;}</style></defs><g transform="translate(-1.663 -4.13)"><path class="a" d="M15.338,11.719H1.352c-.316,0-.51-.077-.574-.229-.161-.381.545-1.116.552-1.123l3.4-3.734c.149-.164.668-.7,1.086-.7a.394.394,0,0,1,.255.088,8.279,8.279,0,0,1,.787.8c.156.173.3.336.43.464l.7.7a.515.515,0,0,0,.34.148.475.475,0,0,0,.327-.148l.718-.708c.118-.117.253-.262.4-.415a7.506,7.506,0,0,1,.829-.811.4.4,0,0,1,.244-.078,1.889,1.889,0,0,1,1.094.695l3.378,3.733c.476.468.669.821.576,1.05C15.787,11.716,15.343,11.719,15.338,11.719Zm1.117-1.273c-.134,0-.333-.147-.592-.437-.154-.174-.339-.4-.535-.641-.212-.26-.431-.529-.6-.721L11.946,5.592a.36.36,0,0,1,0-.506,4.48,4.48,0,0,1,.784-.7c.109-.085.212-.166.308-.244L15.1,2.454c.121-.1.252-.216.391-.34a4.809,4.809,0,0,1,.824-.648.168.168,0,0,1,.074-.02c.246,0,.247.757.247,1.209v.071l.018,7.286C16.655,10.3,16.587,10.445,16.455,10.445ZM.2,10.445a.157.157,0,0,1-.145-.1A.782.782,0,0,1,0,10.012L.016,2.726V2.661c0-.454,0-1.214.249-1.214a.168.168,0,0,1,.074.02,2.3,2.3,0,0,1,.527.425l2.75,2.25c.1.078.2.159.308.244a4.492,4.492,0,0,1,.783.7.361.361,0,0,1,0,.506L1.929,8.647c-.174.191-.393.46-.6.72-.2.241-.381.468-.535.642C.532,10.3.333,10.445.2,10.445ZM8.338,6.812c-.155,0-.423-.233-.706-.481-.1-.088-.205-.179-.306-.26L1.342,1.217C1.2,1.1.513.53.543.238A.148.148,0,0,1,.631.119,1.756,1.756,0,0,1,1.277,0H15.34c.449,0,.709.078.771.232.071.176-.147.39-.15.393L9.341,6.058c-.105.087-.214.184-.319.278C8.749,6.58,8.491,6.812,8.338,6.812Z" transform="translate(1.663 4.13)"/></g></svg>