<svg xmlns="http://www.w3.org/2000/svg" width="28.198" height="18.798" viewBox="0 0 28.198 18.798"><defs><style>.a{fill:#636363;}</style></defs><g transform="translate(0 0)"><path class="a" d="M26.751,85.333H1.446A1.45,1.45,0,0,0,0,86.779v15.906a1.45,1.45,0,0,0,1.446,1.446H26.752a1.45,1.45,0,0,0,1.446-1.446V86.779A1.45,1.45,0,0,0,26.751,85.333Zm-.543,1.084L14.931,94.877a1.512,1.512,0,0,1-1.664,0L1.989,86.417Zm-6.024,9.018,6.146,7.592c.006.008.014.013.02.02H1.847c.006-.007.014-.013.02-.02l6.146-7.592a.542.542,0,0,0-.843-.683L1.085,102.27V87.1l11.532,8.649a2.588,2.588,0,0,0,2.964,0L27.113,87.1V102.27l-6.085-7.517a.542.542,0,0,0-.843.683Z" transform="translate(0 -85.333)"/></g></svg>