<svg xmlns="http://www.w3.org/2000/svg" width="12.506" height="16.675" viewBox="0 0 12.506 16.675"><defs><style>.a{fill:#636363;}</style></defs><g transform="translate(-3.747 -1.663)"><path class="a" d="M10.943,16.675H1.563A1.565,1.565,0,0,1,0,15.112v-7.3A1.565,1.565,0,0,1,1.563,6.253h.521V4.168a4.169,4.169,0,0,1,8.338,0V6.253h.521a1.565,1.565,0,0,1,1.563,1.564v7.3A1.565,1.565,0,0,1,10.943,16.675ZM6.253,9.032a1.385,1.385,0,0,0-.694,2.586V13.2a.695.695,0,1,0,1.39,0V11.618a1.385,1.385,0,0,0-.7-2.586Zm0-7.643A2.782,2.782,0,0,0,3.474,4.168V6.253H9.032V4.168A2.782,2.782,0,0,0,6.253,1.39Z" transform="translate(3.747 1.663)"/></g></svg>