<svg xmlns="http://www.w3.org/2000/svg" width="33.446" height="30.659" viewBox="0 0 33.446 30.659"><defs><style>.a{fill:#0075aa;}</style></defs><g transform="translate(0 -21.329)"><g transform="translate(0 21.329)"><path class="a" d="M30.658,31.085h-.386l-4.787-8.361A2.758,2.758,0,0,0,21.7,21.7L1.381,33.534a2.8,2.8,0,0,0-1.013,3.8l.345.6h0l.576,1.006,2.891,5.048V49.2a2.79,2.79,0,0,0,2.787,2.787H30.658A2.79,2.79,0,0,0,33.446,49.2V33.872A2.79,2.79,0,0,0,30.658,31.085ZM4.181,41.186l-.532-.93.532-.31Zm0-7.314v1.247l-2.6,1.516a1.4,1.4,0,0,1,.506-1.9L4.219,33.5A2.744,2.744,0,0,0,4.181,33.872ZM26.35,27.039l2.316,4.045H19.4ZM22.4,22.909a1.345,1.345,0,0,1,1.035-.139,1.366,1.366,0,0,1,.837.647v0L11.111,31.085H8.36ZM16.723,42.93a.7.7,0,0,1-.7.7H9.058a.7.7,0,1,1,0-1.394h6.968A.7.7,0,0,1,16.723,42.93Zm2.09,4.877H9.058a.7.7,0,0,1,0-1.394h9.755a.7.7,0,0,1,0,1.394Zm7.578,0a2.892,2.892,0,0,1-1.307-.31,2.892,2.892,0,0,1-1.307.31,2.789,2.789,0,1,1,0-5.574,2.892,2.892,0,0,1,1.307.31,2.892,2.892,0,0,1,1.307-.31,2.789,2.789,0,1,1,0,5.574Z" transform="translate(0 -21.329)"/></g></g></svg>