<svg xmlns="http://www.w3.org/2000/svg" xmlns:xlink="http://www.w3.org/1999/xlink" width="129.578" height="131.667" viewBox="0 0 129.578 131.667"><defs><style>.a{fill:url(#a);}.b,.d{fill:#fff;}.c,.d{stroke:none;}.e{filter:url(#b);}</style><linearGradient id="a" x1="0.5" x2="0.5" y2="1" gradientUnits="objectBoundingBox"><stop offset="0" stop-color="#58be3f"/><stop offset="1" stop-color="#80fc61"/></linearGradient><filter id="b" x="0" y="0" width="129.578" height="131.667" filterUnits="userSpaceOnUse"><feOffset input="SourceAlpha"/><feGaussianBlur stdDeviation="11.5" result="c"/><feFlood flood-opacity="0.161"/><feComposite operator="in" in2="c"/><feComposite in="SourceGraphic"/></filter></defs><g transform="translate(34.5 34.5)"><g class="e" transform="matrix(1, 0, 0, 1, -34.5, -34.5)"><g class="a" transform="translate(34.5 34.5)"><path class="c" d="M 30.28884506225586 60.16657638549805 C 26.54691505432129 60.16657638549805 22.91742515563965 59.40866470336914 19.50120544433594 57.91389465332031 C 16.19451522827148 56.46705627441406 13.22288513183594 54.39379501342773 10.66886520385742 51.75171661376953 C 8.109125137329102 49.10370635986328 6.098995208740234 46.01906585693359 4.694304943084717 42.5834846496582 C 3.238275051116943 39.02233505249023 2.500005006790161 35.23722457885742 2.500005006790161 31.33328628540039 C 2.500005006790161 27.42934608459473 3.238275051116943 23.64423561096191 4.694304943084717 20.08309555053711 C 6.098995208740234 16.64751625061035 8.109125137329102 13.56287670135498 10.66887474060059 10.91486644744873 C 13.22288513183594 8.27277660369873 16.19451522827148 6.199516296386719 19.50120544433594 4.752676486968994 C 22.91742515563965 3.257906198501587 26.54691505432129 2.499996185302734 30.28884506225586 2.499996185302734 C 34.0307731628418 2.499996185302734 37.6602668762207 3.257906198501587 41.07649612426758 4.752676486968994 C 44.38317489624023 6.199516296386719 47.35480499267578 8.27277660369873 49.9088249206543 10.91486644744873 C 52.46856689453125 13.56287670135498 54.47870635986328 16.64751625061035 55.88339614868164 20.08309555053711 C 57.33942413330078 23.64423561096191 58.07769393920898 27.42934608459473 58.07769393920898 31.33328628540039 C 58.07769393920898 35.23722457885742 57.33942413330078 39.02233505249023 55.88339614868164 42.5834846496582 C 54.47870635986328 46.01906585693359 52.46856689453125 49.10370635986328 49.9088249206543 51.75171661376953 C 47.35480499267578 54.39379501342773 44.38318634033203 56.46705627441406 41.07649612426758 57.91389465332031 C 37.6602668762207 59.40866470336914 34.0307731628418 60.16657638549805 30.28884506225586 60.16657638549805 Z"/><path class="d" d="M 30.28884506225586 5 C 26.89394378662109 5 23.60163116455078 5.687374114990234 20.50333404541016 7.043022155761719 C 17.49673080444336 8.358562469482422 14.79269409179688 10.2458381652832 12.46633148193359 12.65241241455078 C 10.12852096557617 15.07085037231445 8.292182922363281 17.88920974731445 7.008346557617188 21.02922439575195 C 5.675693511962891 24.2885856628418 4.999996185302734 27.75537490844727 4.999996185302734 31.33328628540039 C 4.999996185302734 34.91120147705078 5.675693511962891 38.37798690795898 7.008346557617188 41.63734817504883 C 8.292182922363281 44.77735900878906 10.12852096557617 47.59572601318359 12.46633148193359 50.01416015625 C 14.79269409179688 52.42073822021484 17.49673080444336 54.30801010131836 20.50333404541016 55.62355041503906 C 23.60163116455078 56.97919845581055 26.89394378662109 57.66657257080078 30.28884506225586 57.66657257080078 C 33.68373107910156 57.66657257080078 36.97605895996094 56.97919845581055 40.07434463500977 55.62355041503906 C 43.08094787597656 54.30801010131836 45.78498077392578 52.42073822021484 48.11134338378906 50.01416015625 C 50.44915771484375 47.59573745727539 52.28549575805664 44.77735900878906 53.56933212280273 41.63734817504883 C 54.90198135375977 38.37798690795898 55.57768249511719 34.91120147705078 55.57768249511719 31.33328628540039 C 55.57768249511719 27.75537490844727 54.90198135375977 24.2885856628418 53.56933212280273 21.02922439575195 C 52.28549575805664 17.88920974731445 50.44915771484375 15.07083511352539 48.11134338378906 12.65241241455078 C 45.78498077392578 10.2458381652832 43.08094787597656 8.358562469482422 40.07434463500977 7.043022155761719 C 36.97605895996094 5.687374114990234 33.68373107910156 5 30.28884506225586 5 M 30.28884506225586 0 C 47.01690673828125 0 60.57768249511719 14.02838516235352 60.57768249511719 31.33328628540039 C 60.57768249511719 48.63818740844727 47.01690673828125 62.66657257080078 30.28884506225586 62.66657257080078 C 13.56077194213867 62.66657257080078 -3.814697265625e-06 48.63818740844727 -3.814697265625e-06 31.33328628540039 C -3.814697265625e-06 14.02838516235352 13.56077194213867 0 30.28884506225586 0 Z"/></g></g><path class="b" d="M31.069-12.122H20.2V-1.279H16.62V-12.122H5.777v-3.605H16.62V-26.571H20.2v10.843h10.87Z" transform="translate(12.386 46.483)"/></g></svg>