<svg xmlns="http://www.w3.org/2000/svg" xmlns:xlink="http://www.w3.org/1999/xlink" width="60" height="51.353" viewBox="0 0 60 51.353"><defs><style>.a{fill:url(#a);}.b{fill:url(#b);}</style><linearGradient id="a" x1="-0.833" y1="1.62" x2="1.413" y2="-0.07" gradientUnits="objectBoundingBox"><stop offset="0" stop-color="#58be3f"/><stop offset="1" stop-color="#80fc61"/></linearGradient><linearGradient id="b" x1="-0.004" y1="1.313" x2="1.044" y2="-0.377" xlink:href="#a"/></defs><path class="a" d="M19,15.7h5.873L22.007,36.143a.778.778,0,0,0,.245.67A1.08,1.08,0,0,0,23,37.1H41a1.08,1.08,0,0,0,.748-.288.778.778,0,0,0,.245-.67L39.127,15.7H45a1.018,1.018,0,0,0,.917-.514.765.765,0,0,0-.184-.925l-13-11.985a1.16,1.16,0,0,0-1.466,0l-13,11.985a.765.765,0,0,0-.184.925A1.018,1.018,0,0,0,19,15.7ZM32,4.117l10.707,9.871H38a1.08,1.08,0,0,0-.748.288.778.778,0,0,0-.245.67l2.866,20.444H24.127l2.866-20.444a.778.778,0,0,0-.245-.67A1.08,1.08,0,0,0,26,13.987H21.293Z" transform="translate(-2 -2.014)"/><path class="b" d="M61,21H45a.936.936,0,0,0-1,.856V28.7a.936.936,0,0,0,1,.856h7V47.538H12V29.561h7a.936.936,0,0,0,1-.856V21.856A.936.936,0,0,0,19,21H3a.936.936,0,0,0-1,.856V55.243A.936.936,0,0,0,3,56.1H61a.936.936,0,0,0,1-.856V21.856A.936.936,0,0,0,61,21ZM60,54.387H4V22.712H18v5.136H11a.936.936,0,0,0-1,.856v19.69a.936.936,0,0,0,1,.856H53a.936.936,0,0,0,1-.856V28.7a.936.936,0,0,0-1-.856H46V22.712H60Z" transform="translate(-2 -4.747)"/></svg>